<?xml version="1.0" standalone="no"?>
<!DOCTYPE svg PUBLIC "-//W3C//DTD SVG 20010904//EN"
 "http://www.w3.org/TR/2001/REC-SVG-20010904/DTD/svg10.dtd">
<svg version="1.0" xmlns="http://www.w3.org/2000/svg"
 width="750.000000pt" height="269.000000pt" viewBox="0 0 750.000000 269.000000"
 preserveAspectRatio="xMidYMid meet">

<g transform="translate(0.000000,269.000000) scale(0.100000,-0.100000)"
fill="#000000" stroke="none">
<path d="M5018 1779 l-3 -554 -26 -55 c-36 -77 -68 -111 -141 -151 -58 -31
-70 -34 -148 -34 -100 1 -154 22 -220 88 -132 134 -125 342 16 466 62 55 118
75 207 75 75 1 78 2 83 26 4 14 15 60 26 104 10 43 17 80 16 82 -2 2 -40 6
-83 10 -190 15 -372 -69 -481 -221 -61 -86 -94 -177 -101 -280 -10 -155 39
-293 145 -407 164 -175 429 -218 647 -105 77 40 182 145 222 222 61 117 63
137 63 632 l0 448 -87 86 c-49 46 -98 93 -110 103 l-22 19 -3 -554z"/>
<path d="M638 1963 l-158 -158 0 -345 0 -345 330 -330 330 -331 0 226 0 225
-167 167 -168 168 -5 440 -5 440 -157 -157z"/>
<path d="M1327 1702 l-157 -157 0 -550 1 -550 159 165 160 164 0 543 c0 299
-1 543 -3 543 -1 0 -73 -71 -160 -158z"/>
<path d="M1865 1760 l-79 -80 19 -38 c11 -22 119 -229 240 -461 l219 -421 86
0 85 0 135 257 c74 142 168 321 208 398 41 77 87 164 103 194 16 30 29 59 29
66 0 6 -35 46 -79 89 l-78 78 -199 -381 c-110 -209 -202 -381 -205 -381 -3 0
-90 164 -194 365 -103 201 -193 372 -199 380 -9 13 -24 3 -91 -65z"/>
<path d="M3424 1825 c-118 -25 -222 -92 -303 -193 -213 -265 -125 -661 180
-811 165 -81 319 -79 487 5 72 36 105 60 146 106 99 108 146 228 146 368 -1
344 -319 599 -656 525z m263 -245 c73 -36 119 -90 154 -180 54 -141 -17 -312
-159 -382 -162 -80 -344 -16 -428 149 -58 114 -32 256 64 356 96 100 237 122
369 57z"/>
<path d="M5450 1202 c0 -712 2 -686 -70 -777 l-39 -49 76 -71 c42 -38 81 -70
87 -70 19 0 110 131 134 192 12 32 27 85 32 118 6 34 10 330 10 678 l0 617
-115 0 -115 0 0 -638z"/>
<path d="M6260 1834 c-172 -31 -304 -120 -391 -264 -85 -139 -93 -340 -21
-503 55 -125 189 -239 333 -284 82 -26 246 -22 323 7 231 88 366 274 366 503
0 240 -142 441 -366 516 -60 20 -195 34 -244 25z m160 -230 c101 -30 162 -88
211 -198 17 -39 20 -63 17 -120 -6 -120 -69 -215 -176 -268 -57 -28 -76 -33
-142 -33 -64 0 -84 5 -133 30 -68 34 -115 83 -153 157 -38 75 -39 180 -1 254
49 97 117 156 207 180 62 17 107 17 170 -2z"/>
</g>
</svg>
